<svg xmlns="http://www.w3.org/2000/svg" width="192" height="192" viewBox="0 0 192 192">
  <rect width="192" height="192" rx="40" fill="#0A1628"/>
  <!-- P letter shape -->
  <path d="M44 32h72c26.5 0 48 21.5 48 48s-21.5 48-48 48H80v32H44V32z" fill="white"/>
  <!-- P letter hole (bowl cutout) -->
  <path d="M80 64v36h36c9.94 0 18-8.06 18-18s-8.06-18-18-18H80z" fill="#0A1628"/>
  <!-- Padel court overlay (green/yellow quad) -->
  <rect x="38" y="56" width="30" height="30" rx="2" fill="#4CAF50"/>
  <rect x="68" y="56" width="30" height="30" rx="2" fill="#C8E636"/>
  <rect x="38" y="86" width="30" height="30" rx="2" fill="#C8E636"/>
  <rect x="68" y="86" width="30" height="30" rx="2" fill="#4CAF50"/>
  <!-- Court lines -->
  <line x1="68" y1="56" x2="68" y2="116" stroke="white" stroke-width="2" opacity="0.6"/>
  <line x1="38" y1="86" x2="98" y2="86" stroke="white" stroke-width="2" opacity="0.6"/>
</svg>
