<svg xmlns="http://www.w3.org/2000/svg" width="32" height="32" viewBox="0 0 32 32">
  <rect width="32" height="32" rx="6" fill="#0A1628"/>
  <!-- P letter shape - outer -->
  <path d="M8 6h12c4.4 0 8 3.6 8 8s-3.6 8-8 8h-6v4h-6V6z" fill="white"/>
  <!-- P letter hole (bowl cutout) -->
  <path d="M14 11v6h6c1.65 0 3-1.35 3-3s-1.35-3-3-3h-6z" fill="#0A1628"/>
  <!-- Padel court overlay (green/yellow quad) positioned in the bowl of P -->
  <rect x="7" y="10" width="5" height="5" rx="0.5" fill="#4CAF50"/>
  <rect x="12" y="10" width="5" height="5" rx="0.5" fill="#C8E636"/>
  <rect x="7" y="15" width="5" height="5" rx="0.5" fill="#C8E636"/>
  <rect x="12" y="15" width="5" height="5" rx="0.5" fill="#4CAF50"/>
  <!-- Court lines -->
  <line x1="12" y1="10" x2="12" y2="20" stroke="white" stroke-width="0.4" opacity="0.6"/>
  <line x1="7" y1="15" x2="17" y2="15" stroke="white" stroke-width="0.4" opacity="0.6"/>
</svg>
