<svg xmlns="http://www.w3.org/2000/svg" width="1200" height="630" viewBox="0 0 1200 630">
  <rect width="1200" height="630" fill="#0A1628"/>
  <!-- Logo P -->
  <path d="M440 140h120c44 0 80 36 80 80s-36 80-80 80H500v70h-60V140z" fill="white"/>
  <path d="M500 190v60h60c16.5 0 30-13.5 30-30s-13.5-30-30-30h-60z" fill="#0A1628"/>
  <!-- Court -->
  <rect x="430" y="186" width="50" height="50" rx="3" fill="#4CAF50"/>
  <rect x="480" y="186" width="50" height="50" rx="3" fill="#C8E636"/>
  <rect x="430" y="236" width="50" height="50" rx="3" fill="#C8E636"/>
  <rect x="480" y="236" width="50" height="50" rx="3" fill="#4CAF50"/>
  <line x1="480" y1="186" x2="480" y2="286" stroke="white" stroke-width="2" opacity="0.6"/>
  <line x1="430" y1="236" x2="530" y2="236" stroke="white" stroke-width="2" opacity="0.6"/>
  <!-- Text -->
  <text x="600" y="460" font-size="48" font-weight="900" fill="white" text-anchor="middle" font-family="system-ui, -apple-system, sans-serif">PADELIA</text>
  <text x="600" y="510" font-size="22" fill="#8B949E" text-anchor="middle" font-family="system-ui, -apple-system, sans-serif">Joue mieux, plus souvent, avec les bons partenaires.</text>
</svg>
